<?xml version="1.0" encoding="utf-8"?>
<!-- Generator: Adobe Illustrator 19.0.0, SVG Export Plug-In . SVG Version: 6.00 Build 0)  -->
<svg version="1.1" id="objects" xmlns="http://www.w3.org/2000/svg" xmlns:xlink="http://www.w3.org/1999/xlink" x="0px" y="0px"
	 width="31px" height="26px" viewBox="0 0 31 26" style="enable-background:new 0 0 31 26;" xml:space="preserve">
<style type="text/css">
	.st0{opacity:0.5;fill:url(#SVGID_1_);}
	.st1{fill:url(#SVGID_2_);}
</style>
<g>
	<linearGradient id="SVGID_1_" gradientUnits="userSpaceOnUse" x1="28.2383" y1="1.0591" x2="3.492" y2="22.842">
		<stop  offset="5.376340e-003" style="stop-color:#5DAB1D"/>
		<stop  offset="1" style="stop-color:#255C1F"/>
	</linearGradient>
	<path class="st0" d="M20.8,15.6c-0.5,0-0.9,0.4-0.9,0.8c0,2.2-0.9,4.2-2.7,5.7c-1.7,1.5-4,2.4-6.4,2.4c-2.4,0-4.7-0.8-6.4-2.4
		c-1.7-1.5-2.7-3.6-2.7-5.7c0-2.2,0.9-4.2,2.7-5.7c1.7-1.5,4-2.4,6.4-2.4c0.5,0,0.9-0.4,0.9-0.8s-0.4-0.8-0.9-0.8
		c-2.9,0-5.6,1-7.7,2.8C1.1,11.4,0,13.8,0,16.4c0,2.6,1.1,5,3.2,6.8C5.2,25,8,26,10.9,26c2.9,0,5.6-1,7.7-2.8
		c2.1-1.8,3.2-4.2,3.2-6.8C21.7,15.9,21.3,15.6,20.8,15.6z"/>
	<linearGradient id="SVGID_2_" gradientUnits="userSpaceOnUse" x1="30.2574" y1="-0.3591" x2="2.2848" y2="22.9609">
		<stop  offset="5.376340e-003" style="stop-color:#5DAB1D"/>
		<stop  offset="1" style="stop-color:#255C1F"/>
	</linearGradient>
	<path class="st1" d="M30.5,0C19.3,6.1,13.2,16.4,13.2,16.4l-2.2-4c-1.7-2.2-4.5,0.1-4.5,0.1c3.5,0.7,5.5,8.6,5.5,8.6l2.7-1.6
		C18.4,9.7,31,0.7,31,0.7L30.5,0z"/>
</g>
</svg>
