<?xml version="1.0" encoding="utf-8"?>
<!-- Generator: Adobe Illustrator 19.2.1, SVG Export Plug-In . SVG Version: 6.00 Build 0)  -->
<svg version="1.1" id="Layer_1" xmlns="http://www.w3.org/2000/svg" xmlns:xlink="http://www.w3.org/1999/xlink" x="0px" y="0px"
	 width="1437px" height="369px" viewBox="0 0 1437 369" style="enable-background:new 0 0 1437 369;" xml:space="preserve">
<style type="text/css">
	.st0{fill:url(#SVGID_1_);}
</style>
<linearGradient id="SVGID_1_" gradientUnits="userSpaceOnUse" x1="1" y1="184.5" x2="1436" y2="184.5">
	<stop  offset="0" style="stop-color:#FB8E35"/>
	<stop  offset="1" style="stop-color:#FF6455"/>
</linearGradient>
<path class="st0" d="M1424.4,158.5L1259.7,10.1c-6.6-5.9-15-9-23.5-9c-4.8,0-9.7,1-14.2,3c-12.6,5.6-20.8,18.2-20.8,32v28H32.1
	C15,64.2,1,78.1,1,95.2v178.5c0,17.1,14,31.1,31.1,31.1h1169.1v28c0,13.8,8.1,26.4,20.8,32c4.6,2,9.4,3,14.3,3
	c8.5,0,16.9-3.1,23.5-9l164.7-148.3c7.4-6.6,11.6-16.1,11.6-26C1436,174.6,1431.8,165.2,1424.4,158.5z"/>
</svg>
