<?xml version="1.0" encoding="utf-8"?>
<!-- Generator: Adobe Illustrator 19.2.1, SVG Export Plug-In . SVG Version: 6.00 Build 0)  -->
<svg version="1.1" id="Layer_1" xmlns="http://www.w3.org/2000/svg" xmlns:xlink="http://www.w3.org/1999/xlink" x="0px" y="0px"
	 width="81.4px" height="81.4px" viewBox="0 0 81.4 81.4" style="enable-background:new 0 0 81.4 81.4;" xml:space="preserve">
<style type="text/css">
	.st0{fill:url(#SVGID_1_);}
	.st1{fill:#FFFFFF;}
</style>
<linearGradient id="SVGID_1_" gradientUnits="userSpaceOnUse" x1="0.4403" y1="40.71" x2="80.9797" y2="40.71">
	<stop  offset="0" style="stop-color:#FB8D36"/>
	<stop  offset="0.9892" style="stop-color:#FF6454"/>
</linearGradient>
<path class="st0" d="M77.5,49.2L49.2,77.5c-4.7,4.7-12.3,4.7-17,0L3.9,49.2c-4.7-4.7-4.7-12.3,0-17L32.2,3.9c4.7-4.7,12.3-4.7,17,0
	l28.3,28.3C82.1,36.9,82.1,44.5,77.5,49.2z"/>
<g>
	<path class="st1" d="M40.7,34.5c-1.1,0-2.1,0.9-2.1,2.1v2.1h4.1v-2.1C42.8,35.4,41.9,34.5,40.7,34.5z"/>
	<path class="st1" d="M54,24.3c-0.7-0.3-1.6-0.2-2.2,0.3c-2.6,2.1-7.2,2.1-9.8,0c-0.8-0.6-1.8-0.6-2.6,0c-2.6,2.1-7.2,2.1-9.8,0
		c-0.6-0.5-1.5-0.6-2.2-0.3c-0.7,0.3-1.2,1.1-1.2,1.9l0,16.6c0,6.5,5.2,11.9,13.9,14.4c0.2,0.1,0.4,0.1,0.6,0.1c0.2,0,0.4,0,0.6-0.1
		c8.7-2.5,13.9-7.9,13.9-14.4V26.2C55.2,25.4,54.8,24.7,54,24.3z M46.9,44.9c0,1.1-0.9,2.1-2.1,2.1h-8.3c-1.1,0-2.1-0.9-2.1-2.1
		v-4.1c0-1.1,0.9-2.1,2.1-2.1v-2.1c0-2.3,1.9-4.1,4.1-4.1s4.1,1.9,4.1,4.1v2.1c1.1,0,2.1,0.9,2.1,2.1V44.9z"/>
	<path class="st1" d="M40.7,41.7c-0.6,0-1,0.5-1,1c0,0.6,0.5,1,1,1s1-0.5,1-1C41.7,42.2,41.3,41.7,40.7,41.7z"/>
</g>
</svg>
