<?xml version="1.0" encoding="utf-8"?>
<!-- Generator: Adobe Illustrator 19.2.1, SVG Export Plug-In . SVG Version: 6.00 Build 0)  -->
<svg version="1.1" id="Layer_1" xmlns="http://www.w3.org/2000/svg" xmlns:xlink="http://www.w3.org/1999/xlink" x="0px" y="0px"
	 width="81.4px" height="81.4px" viewBox="0 0 81.4 81.4" style="enable-background:new 0 0 81.4 81.4;" xml:space="preserve">
<style type="text/css">
	.st0{fill:url(#SVGID_1_);}
	.st1{fill:#FFFFFF;}
</style>
<linearGradient id="SVGID_1_" gradientUnits="userSpaceOnUse" x1="0.4403" y1="40.71" x2="80.9797" y2="40.71">
	<stop  offset="0" style="stop-color:#FB8D36"/>
	<stop  offset="0.9892" style="stop-color:#FF6454"/>
</linearGradient>
<path class="st0" d="M77.5,49.2L49.2,77.5c-4.7,4.7-12.3,4.7-17,0L3.9,49.2c-4.7-4.7-4.7-12.3,0-17L32.2,3.9c4.7-4.7,12.3-4.7,17,0
	l28.3,28.3C82.1,36.9,82.1,44.5,77.5,49.2z"/>
<g>
	<g>
		<g>
			<g>
				<rect x="28.1" y="43" class="st1" width="10.5" height="3.2"/>
			</g>
			<g>
				<g>
					<polygon class="st1" points="37.4,40.6 44.2,44.6 37.4,48.5 					"/>
				</g>
			</g>
		</g>
		<path class="st1" d="M31.6,32.7v16h-6.9v-16H31.6 M31.7,29.7h-7.2c-1.5,0-2.8,1.3-2.8,2.8v16.3c0,1.5,1.3,2.8,2.8,2.8h7.2
			c1.5,0,2.8-1.3,2.8-2.8V32.5C34.6,31,33.3,29.7,31.7,29.7L31.7,29.7z"/>
	</g>
	<g>
		<g>
			<g>
				<rect x="42.8" y="35.3" class="st1" width="10.5" height="3.2"/>
			</g>
			<g>
				<g>
					<polygon class="st1" points="44,40.8 37.2,36.8 44,32.9 					"/>
				</g>
			</g>
		</g>
		<path class="st1" d="M49.8,48.8v-16h6.9v16H49.8 M49.7,51.7h7.2c1.5,0,2.8-1.3,2.8-2.8V32.7c0-1.5-1.3-2.8-2.8-2.8h-7.2
			c-1.5,0-2.8,1.3-2.8,2.8v16.3C46.9,50.5,48.1,51.7,49.7,51.7L49.7,51.7z"/>
	</g>
</g>
</svg>
