<?xml version="1.0" encoding="utf-8"?>
<!-- Generator: Adobe Illustrator 19.2.1, SVG Export Plug-In . SVG Version: 6.00 Build 0)  -->
<svg version="1.1" id="Layer_1" xmlns="http://www.w3.org/2000/svg" xmlns:xlink="http://www.w3.org/1999/xlink" x="0px" y="0px"
	 width="81.4px" height="81.4px" viewBox="0 0 81.4 81.4" style="enable-background:new 0 0 81.4 81.4;" xml:space="preserve">
<style type="text/css">
	.st0{fill:url(#SVGID_1_);}
	.st1{fill:#FFFFFF;}
</style>
<linearGradient id="SVGID_1_" gradientUnits="userSpaceOnUse" x1="0.4403" y1="40.71" x2="80.9797" y2="40.71">
	<stop  offset="0" style="stop-color:#FB8D36"/>
	<stop  offset="0.9892" style="stop-color:#FF6454"/>
</linearGradient>
<path class="st0" d="M77.5,49.2L49.2,77.5c-4.7,4.7-12.3,4.7-17,0L3.9,49.2c-4.7-4.7-4.7-12.3,0-17L32.2,3.9c4.7-4.7,12.3-4.7,17,0
	l28.3,28.3C82.1,36.9,82.1,44.5,77.5,49.2z"/>
<path class="st1" d="M48.4,34c-0.2-0.3-0.4-0.5-0.6-0.6c0-0.3,0-0.8-0.1-1.4c0.1-0.7,0.2-4.4-2-6c-1.4-1-3-1.6-4.5-1.6
	c-1.3,0-2.5,0.4-3.4,1c-0.8,0.6-1.3,1.2-1.5,1.7c-0.7,0-2.2,0.3-2.8,2.2c-0.6,1.8-0.1,2.9,0.2,3.4c0,0.3,0,0.6,0,0.8
	c-0.2,0.1-0.4,0.3-0.6,0.6c-0.4,0.6-0.5,1.5-0.2,2.5c0.5,1.9,1.7,2.4,2.3,2.4c0.4,0.8,1.2,2.4,2.1,3.2c0.3,0.3,0.8,0.6,1.3,0.8
	c0.7,0.3,1.4,0.4,2.1,0.4c0.7,0,1.5-0.1,2.1-0.4c0.5-0.2,1-0.5,1.3-0.8c0.9-0.8,1.7-2.4,2.1-3.2c0.6-0.1,1.8-0.5,2.3-2.4
	C48.9,35.5,48.8,34.7,48.4,34z M51.9,46.1l-6.5-2.6c-0.2-0.1-0.4-0.1-0.6,0c-0.2,0.1-0.3,0.2-0.4,0.4l-1.6,4.5l-0.3-0.9l0.5-1.3
	c0.1-0.2,0.1-0.5-0.1-0.7c-0.1-0.2-0.4-0.3-0.6-0.3h-3.2c-0.2,0-0.5,0.1-0.6,0.3c-0.1,0.2-0.2,0.5-0.1,0.7l0.5,1.3l-0.3,0.9L37,44
	c-0.1-0.2-0.2-0.3-0.4-0.4c-0.2-0.1-0.4-0.1-0.6,0l-6.5,2.6c-2,0.8-3.3,2.7-3.3,4.9v4.4c0.3,0.9,1.1,1.6,2.1,1.6H53
	c1.1,0,2-0.8,2.2-1.8V51C55.2,48.8,53.9,46.9,51.9,46.1z M51.2,53.9c0,0.4-0.3,0.7-0.7,0.7h-5c-0.4,0-0.7-0.3-0.7-0.7v-2.3
	c0-0.4,0.3-0.7,0.7-0.7h5c0.4,0,0.7,0.3,0.7,0.7V53.9z"/>
</svg>
