<?xml version="1.0" encoding="utf-8"?>
<!-- Generator: Adobe Illustrator 19.2.1, SVG Export Plug-In . SVG Version: 6.00 Build 0)  -->
<svg version="1.1" id="Layer_1" xmlns="http://www.w3.org/2000/svg" xmlns:xlink="http://www.w3.org/1999/xlink" x="0px" y="0px"
	 width="41px" height="30px" viewBox="0 0 41 30" style="enable-background:new 0 0 41 30;" xml:space="preserve">
<style type="text/css">
	.st0{fill:#EF4435;}
	.st1{fill:#E07823;}
</style>
<g>
	<g>
		<g>
			<path class="st0" d="M16.5,23.7l-1.6,1.6c-0.1,0.1-0.2,0.1-0.2,0.1s-0.2,0-0.2-0.1l-10-10c-0.1-0.1-0.1-0.4,0-0.5l10-10
				c0.1-0.1,0.2-0.1,0.2-0.1s0.2,0,0.2,0.1l1.6,1.6C17.2,5.5,18,4.7,19,4l-1.7-1.7c-0.7-0.7-1.7-1.1-2.6-1.1c-0.9,0-1.9,0.4-2.6,1.1
				L2.1,12.4c-1.4,1.4-1.4,3.8,0,5.2l10,10c0.7,0.7,1.7,1.1,2.6,1.1c0.9,0,1.9-0.4,2.6-1.1l1.7-1.7C18,25.3,17.2,24.5,16.5,23.7z"/>
		</g>
		<path class="st1" d="M25,15.2l-8.5,8.5c-2-2.3-3.2-5.4-3.2-8.7s1.2-6.4,3.2-8.7l8.5,8.5C25.1,14.9,25.1,15.1,25,15.2z"/>
		<path class="st0" d="M40,15c0,7.4-6,13.4-13.4,13.4c-2.8,0-5.5-0.9-7.7-2.4l8.3-8.3c1.4-1.4,1.4-3.8,0-5.2L19,4
			c2.2-1.5,4.8-2.4,7.7-2.4C34,1.6,40,7.6,40,15z"/>
	</g>
</g>
</svg>
