<?xml version="1.0" encoding="utf-8"?>
<!-- Generator: Adobe Illustrator 19.2.1, SVG Export Plug-In . SVG Version: 6.00 Build 0)  -->
<svg version="1.1" id="Layer_1" xmlns="http://www.w3.org/2000/svg" xmlns:xlink="http://www.w3.org/1999/xlink" x="0px" y="0px"
	 width="300px" height="47px" viewBox="0 0 300 47" style="enable-background:new 0 0 300 47;" xml:space="preserve">
<style type="text/css">
	.st0{fill:#EF4435;}
	.st1{fill:#E07823;}
	.st2{fill:#333333;}
	.st3{fill:#5B6877;}
</style>
<g>
	<g>
		<g>
			<path class="st0" d="M26.8,38l-2.6,2.6c-0.1,0.1-0.3,0.2-0.4,0.2s-0.3,0-0.4-0.2L6.7,23.9c-0.2-0.2-0.2-0.6,0-0.8L23.4,6.4
				c0.1-0.1,0.3-0.2,0.4-0.2s0.3,0,0.4,0.2L26.8,9C28,7.6,29.4,6.3,31,5.2l-2.8-2.8c-1.2-1.2-2.8-1.8-4.3-1.8s-3.1,0.6-4.3,1.8
				L2.8,19.2c-2.4,2.4-2.4,6.3,0,8.7l16.7,16.7c1.2,1.2,2.8,1.8,4.3,1.8s3.1-0.6,4.3-1.8l2.8-2.8C29.4,40.7,28,39.4,26.8,38z"/>
		</g>
		<path class="st1" d="M41,23.9L26.8,38c-3.4-3.9-5.4-9-5.4-14.5s2-10.6,5.4-14.5L41,23.1C41.2,23.3,41.2,23.7,41,23.9z"/>
		<path class="st0" d="M66,23.5c0,12.3-10,22.3-22.3,22.3c-4.7,0-9.1-1.5-12.8-4l13.9-13.9c2.4-2.4,2.4-6.3,0-8.7L31,5.2
			c3.6-2.5,8-4,12.8-4C56,1.2,66,11.2,66,23.5z"/>
	</g>
</g>
<g>
	<g>
		<path class="st2" d="M79.9,24.9V4.8h4.2c3,0,5.2,0.2,6.5,0.7c2,0.7,3.5,1.9,4.6,3.6c1.1,1.7,1.6,3.7,1.6,6c0,2-0.4,3.8-1.3,5.3
			s-2,2.7-3.4,3.4s-3.3,1.1-5.8,1.1H79.9z M81.8,23h2.3c2.8,0,4.7-0.2,5.8-0.5c1.5-0.5,2.7-1.4,3.6-2.7c0.9-1.3,1.3-2.8,1.3-4.7
			c0-1.9-0.5-3.6-1.4-5s-2.2-2.3-3.9-2.8c-1.3-0.4-3.3-0.6-6.2-0.6h-1.4V23z"/>
		<path class="st2" d="M110.3,4.2c3,0,5.6,1,7.6,3c2.1,2,3.1,4.5,3.1,7.5c0,2.9-1,5.4-3.1,7.5c-2,2.1-4.5,3.1-7.5,3.1
			c-3,0-5.5-1-7.6-3.1s-3.1-4.5-3.1-7.4c0-1.9,0.5-3.7,1.4-5.4c0.9-1.6,2.2-2.9,3.8-3.9C106.7,4.7,108.5,4.2,110.3,4.2z M110.4,6.2
			c-1.5,0-2.9,0.4-4.2,1.2s-2.4,1.8-3.1,3.1c-0.7,1.3-1.1,2.8-1.1,4.4c0,2.4,0.8,4.4,2.5,6.1s3.7,2.5,6,2.5c1.6,0,3-0.4,4.3-1.1
			c1.3-0.8,2.4-1.8,3.1-3.1c0.7-1.3,1.1-2.8,1.1-4.4c0-1.6-0.4-3-1.1-4.3s-1.8-2.3-3.1-3.1C113.4,6.6,111.9,6.2,110.4,6.2z"/>
		<path class="st2" d="M123.1,6.7v-2h11v2h-4.5v18.1h-2.1V6.7H123.1z"/>
		<path class="st2" d="M135,6.7v-2h11v2h-4.5v18.1h-2.1V6.7H135z"/>
		<path class="st2" d="M148.9,4.8h11.5v2H151V13h9.4v2H151v7.9h9.4v2h-11.4V4.8z"/>
		<path class="st2" d="M163.9,24.9V4.8h4.2c3,0,5.2,0.2,6.5,0.7c2,0.7,3.5,1.9,4.6,3.6c1.1,1.7,1.6,3.7,1.6,6c0,2-0.4,3.8-1.3,5.3
			s-2,2.7-3.4,3.4s-3.3,1.1-5.8,1.1H163.9z M165.9,23h2.3c2.8,0,4.7-0.2,5.8-0.5c1.5-0.5,2.7-1.4,3.6-2.7c0.9-1.3,1.3-2.8,1.3-4.7
			c0-1.9-0.5-3.6-1.4-5s-2.2-2.3-3.9-2.8c-1.3-0.4-3.3-0.6-6.2-0.6h-1.4V23z"/>
		<path class="st2" d="M190.5,21.1l1.7-1c1.2,2.2,2.6,3.3,4.2,3.3c0.7,0,1.3-0.2,1.9-0.5s1-0.7,1.4-1.3c0.3-0.5,0.5-1.1,0.5-1.7
			c0-0.7-0.2-1.3-0.7-2c-0.6-0.9-1.8-2-3.4-3.2c-1.7-1.3-2.7-2.2-3.1-2.7c-0.7-0.9-1.1-2-1.1-3.1c0-0.9,0.2-1.7,0.6-2.4
			c0.4-0.7,1-1.3,1.8-1.7c0.8-0.4,1.6-0.6,2.5-0.6c0.9,0,1.8,0.2,2.7,0.7c0.8,0.5,1.7,1.3,2.6,2.6l-1.6,1.2c-0.8-1-1.4-1.7-1.9-2
			c-0.5-0.3-1.1-0.5-1.7-0.5c-0.8,0-1.5,0.2-2,0.7s-0.8,1.1-0.8,1.8c0,0.4,0.1,0.9,0.3,1.3s0.5,0.9,1,1.3c0.3,0.3,1.1,0.9,2.6,2
			c1.7,1.3,2.9,2.4,3.6,3.4c0.6,1,1,2,1,3c0,1.5-0.6,2.7-1.7,3.8c-1.1,1.1-2.5,1.6-4,1.6c-1.2,0-2.3-0.3-3.3-1
			C192.2,23.7,191.3,22.7,190.5,21.1z"/>
		<path class="st2" d="M223.3,22.7l3,3.8h-2.5l-2-2.6c-1.6,1-3.5,1.5-5.6,1.5c-3,0-5.5-1-7.5-3.1s-3.1-4.5-3.1-7.4
			c0-1.9,0.5-3.7,1.4-5.4s2.2-2.9,3.8-3.9c1.6-0.9,3.4-1.4,5.3-1.4c3,0,5.5,1,7.5,3.1s3.1,4.5,3.1,7.5c0,1.5-0.3,3-0.8,4.3
			S224.5,21.6,223.3,22.7z M222.1,21.1c1.8-1.7,2.6-3.8,2.6-6.3c0-1.6-0.4-3-1.1-4.3c-0.7-1.3-1.8-2.3-3.1-3.1
			c-1.3-0.8-2.8-1.2-4.3-1.2c-1.5,0-2.9,0.4-4.3,1.2c-1.3,0.8-2.4,1.8-3.1,3.1s-1.1,2.8-1.1,4.4c0,2.4,0.8,4.4,2.5,6.1
			s3.6,2.5,6,2.5c1.6,0,3.1-0.4,4.4-1.2l-4.5-5.7h2.4L222.1,21.1z"/>
		<path class="st2" d="M230.9,4.8h2v12.1c0,1.4,0,2.3,0.1,2.7c0.1,0.8,0.3,1.5,0.7,2s0.9,1,1.7,1.3c0.8,0.4,1.5,0.5,2.3,0.5
			c0.7,0,1.3-0.1,1.9-0.4c0.6-0.3,1.1-0.7,1.5-1.2c0.4-0.5,0.7-1.1,0.9-1.8c0.1-0.5,0.2-1.6,0.2-3.1V4.8h2v12.1
			c0,1.8-0.2,3.2-0.5,4.4s-1.1,2.1-2.1,2.9c-1.1,0.8-2.3,1.2-3.8,1.2c-1.6,0-3-0.4-4.2-1.2c-1.2-0.8-1.9-1.8-2.3-3.1
			c-0.2-0.8-0.4-2.2-0.4-4.2V4.8z"/>
		<path class="st2" d="M257.4,4.8l9.4,20.1h-2.2l-3.2-6.6h-8.7l-3.1,6.6h-2.2l9.5-20.1H257.4z M257.2,9l-3.4,7.3h6.9L257.2,9z"/>
		<path class="st2" d="M270,4.8h4c2.2,0,3.7,0.1,4.5,0.3c1.2,0.3,2.2,0.9,2.9,1.8s1.1,2,1.1,3.3c0,1.1-0.3,2.1-0.8,2.9
			c-0.5,0.8-1.3,1.5-2.2,1.9c-1,0.4-2.3,0.6-4,0.7l7.2,9.3h-2.5l-7.2-9.3H272v9.3h-2V4.8z M272,6.7v6.8l3.5,0c1.3,0,2.3-0.1,3-0.4
			c0.6-0.3,1.1-0.7,1.5-1.2s0.5-1.2,0.5-1.9c0-0.7-0.2-1.3-0.5-1.8c-0.4-0.6-0.8-0.9-1.4-1.2c-0.6-0.2-1.6-0.4-3-0.4H272z"/>
		<path class="st2" d="M286.9,4.8h11.5v2h-9.5V13h9.4v2h-9.4v7.9h9.4v2h-11.4V4.8z"/>
	</g>
	<g>
		<path class="st3" d="M79.9,34.8H83c0.8,0,1.4,0.2,1.9,0.6s0.7,0.9,0.7,1.6c0,0.7-0.2,1.2-0.7,1.6c-0.5,0.4-1.1,0.6-1.9,0.6h-2.2
			v3.4h-0.9V34.8z M83,38.5c0.6,0,1-0.1,1.3-0.4c0.3-0.2,0.4-0.6,0.4-1.1c0-0.5-0.1-0.8-0.4-1.1c-0.3-0.2-0.7-0.4-1.3-0.4h-2.1v2.9
			H83z"/>
		<path class="st3" d="M93.8,42.7h-1l-1-2.6c-0.1-0.3-0.3-0.5-0.5-0.6c-0.2-0.1-0.5-0.2-0.9-0.2h-2v3.4h-0.9v-7.8h3.1
			c0.8,0,1.5,0.2,1.9,0.6c0.5,0.4,0.7,0.9,0.7,1.6c0,0.5-0.1,0.9-0.4,1.3c-0.3,0.3-0.7,0.6-1.2,0.7c0.2,0,0.4,0.1,0.6,0.3
			c0.2,0.2,0.3,0.4,0.4,0.7L93.8,42.7z M90.7,38.5c1.2,0,1.8-0.5,1.8-1.5c0-0.5-0.1-0.8-0.4-1.1c-0.3-0.2-0.7-0.4-1.4-0.4h-2.1v2.9
			H90.7z"/>
		<path class="st3" d="M95.8,42.7v-7.8h0.9v7.8H95.8z"/>
		<path class="st3" d="M104.9,34.8h0.9l-3.4,7.8h-0.8l-3.4-7.8h1l2.9,6.7L104.9,34.8z"/>
		<path class="st3" d="M112.7,42.7l-0.9-2h-4.1l-0.9,2h-0.9l3.4-7.8h0.8l3.4,7.8H112.7z M108.1,39.9h3.5l-1.7-4L108.1,39.9z"/>
		<path class="st3" d="M116.5,42.3c-0.5-0.3-1-0.8-1.3-1.4c-0.3-0.6-0.4-1.3-0.4-2.1s0.1-1.5,0.4-2.1c0.3-0.6,0.7-1.1,1.3-1.4
			c0.5-0.3,1.2-0.5,1.9-0.5c0.5,0,1,0.1,1.5,0.2s0.8,0.4,1.2,0.7l-0.3,0.7c-0.4-0.3-0.7-0.6-1.1-0.7c-0.4-0.1-0.8-0.2-1.2-0.2
			c-0.9,0-1.5,0.3-2,0.8c-0.5,0.6-0.7,1.3-0.7,2.4c0,1,0.2,1.8,0.7,2.4c0.5,0.6,1.1,0.8,2,0.8c0.4,0,0.8-0.1,1.2-0.2
			c0.4-0.1,0.7-0.4,1.1-0.7l0.3,0.7c-0.3,0.3-0.7,0.6-1.2,0.7s-0.9,0.2-1.5,0.2C117.7,42.8,117,42.6,116.5,42.3z"/>
		<path class="st3" d="M128.8,34.8l-3.1,4.7v3.2h-0.9v-3.2l-3.1-4.7h1.1l2.5,3.8l2.5-3.8H128.8z"/>
		<path class="st3" d="M139.6,42.7l-0.9-2h-4.1l-0.9,2h-0.9l3.4-7.8h0.8l3.4,7.8H139.6z M135,39.9h3.5l-1.7-4L135,39.9z"/>
		<path class="st3" d="M147.6,34.8h0.9v7.8h-0.7l-4.7-6.3v6.3h-0.8v-7.8h0.7l4.7,6.3V34.8z"/>
		<path class="st3" d="M151,34.8h2.6c1.3,0,2.2,0.3,2.9,1c0.7,0.7,1,1.6,1,2.9c0,1.3-0.3,2.2-1,2.9c-0.7,0.7-1.7,1-2.9,1H151V34.8z
			 M153.6,41.9c1,0,1.8-0.3,2.3-0.8c0.5-0.5,0.8-1.3,0.8-2.4c0-2.1-1-3.1-3-3.1h-1.7v6.3H153.6z"/>
		<path class="st3" d="M165,42.7v-7.1h-2.7v-0.8h6.4v0.8H166v7.1H165z"/>
		<path class="st3" d="M176.5,42.7h-1l-1-2.6c-0.1-0.3-0.3-0.5-0.5-0.6c-0.2-0.1-0.5-0.2-0.9-0.2h-2v3.4h-0.9v-7.8h3.1
			c0.8,0,1.5,0.2,1.9,0.6c0.5,0.4,0.7,0.9,0.7,1.6c0,0.5-0.1,0.9-0.4,1.3c-0.3,0.3-0.7,0.6-1.2,0.7c0.2,0,0.4,0.1,0.6,0.3
			c0.2,0.2,0.3,0.4,0.4,0.7L176.5,42.7z M173.4,38.5c1.2,0,1.8-0.5,1.8-1.5c0-0.5-0.1-0.8-0.4-1.1c-0.3-0.2-0.7-0.4-1.4-0.4h-2.1
			v2.9H173.4z"/>
		<path class="st3" d="M184.4,42.7l-0.9-2h-4.1l-0.9,2h-0.9l3.4-7.8h0.8l3.4,7.8H184.4z M179.8,39.9h3.5l-1.7-4L179.8,39.9z"/>
		<path class="st3" d="M188.2,42.3c-0.5-0.3-1-0.8-1.3-1.4c-0.3-0.6-0.4-1.3-0.4-2.1s0.1-1.5,0.4-2.1c0.3-0.6,0.7-1.1,1.3-1.4
			c0.5-0.3,1.2-0.5,1.9-0.5c0.5,0,1,0.1,1.5,0.2s0.8,0.4,1.2,0.7l-0.3,0.7c-0.4-0.3-0.7-0.6-1.1-0.7c-0.4-0.1-0.8-0.2-1.2-0.2
			c-0.9,0-1.5,0.3-2,0.8c-0.5,0.6-0.7,1.3-0.7,2.4c0,1,0.2,1.8,0.7,2.4c0.5,0.6,1.1,0.8,2,0.8c0.4,0,0.8-0.1,1.2-0.2
			c0.4-0.1,0.7-0.4,1.1-0.7l0.3,0.7c-0.3,0.3-0.7,0.6-1.2,0.7s-0.9,0.2-1.5,0.2C189.4,42.8,188.8,42.6,188.2,42.3z"/>
		<path class="st3" d="M194.9,42.7v-7.8h5v0.7h-4.1v2.7h3.8v0.8h-3.8v2.8h4.1v0.7H194.9z"/>
		<path class="st3" d="M207.7,42.7l-0.9-2h-4.1l-0.9,2H201l3.4-7.8h0.8l3.4,7.8H207.7z M203.1,39.9h3.5l-1.7-4L203.1,39.9z"/>
		<path class="st3" d="M215.9,39.3c0.2,0.3,0.4,0.7,0.4,1.2c0,0.7-0.2,1.2-0.7,1.6c-0.5,0.4-1.1,0.6-1.9,0.6h-3.3v-7.8h3.1
			c0.8,0,1.4,0.2,1.9,0.5c0.4,0.4,0.7,0.9,0.7,1.5c0,0.4-0.1,0.8-0.3,1.1c-0.2,0.3-0.5,0.5-0.9,0.7C215.3,38.8,215.6,39,215.9,39.3z
			 M211.3,38.3h2.1c0.6,0,1-0.1,1.3-0.4s0.5-0.6,0.5-1c0-0.9-0.6-1.3-1.8-1.3h-2.1V38.3z M214.9,41.6c0.3-0.2,0.4-0.6,0.4-1.1
			c0-1-0.6-1.4-1.8-1.4h-2.3v2.8h2.3C214.2,41.9,214.6,41.8,214.9,41.6z"/>
		<path class="st3" d="M218.4,42.7v-7.8h0.9v7.8H218.4z"/>
		<path class="st3" d="M221.8,42.7v-7.8h0.9v7.1h3.9v0.8H221.8z"/>
		<path class="st3" d="M228.3,42.7v-7.8h0.9v7.8H228.3z"/>
		<path class="st3" d="M233.6,42.7v-7.1h-2.7v-0.8h6.4v0.8h-2.7v7.1H233.6z"/>
		<path class="st3" d="M244.9,34.8l-3.1,4.7v3.2h-0.9v-3.2l-3.1-4.7h1.1l2.5,3.8l2.5-3.8H244.9z"/>
		<path class="st3" d="M249.7,42.7v-7.8h4.8v0.8h-3.9v2.7h3.7v0.8h-3.7v3.6H249.7z"/>
		<path class="st3" d="M257.6,42.3c-0.5-0.3-0.9-0.8-1.2-1.4c-0.3-0.6-0.4-1.3-0.4-2.1c0-0.8,0.1-1.5,0.4-2.1s0.7-1.1,1.2-1.4
			c0.5-0.3,1.2-0.5,1.9-0.5s1.4,0.2,1.9,0.5c0.5,0.3,0.9,0.8,1.2,1.4s0.4,1.3,0.4,2.1c0,0.8-0.1,1.5-0.4,2.1
			c-0.3,0.6-0.7,1.1-1.2,1.4s-1.2,0.5-1.9,0.5C258.8,42.8,258.1,42.6,257.6,42.3z M261.4,41.1c0.5-0.6,0.7-1.4,0.7-2.4
			s-0.2-1.8-0.7-2.4c-0.5-0.6-1.1-0.8-1.9-0.8s-1.5,0.3-1.9,0.8c-0.5,0.6-0.7,1.4-0.7,2.4c0,1,0.2,1.8,0.7,2.4
			c0.5,0.6,1.1,0.8,1.9,0.8C260.3,42,261,41.7,261.4,41.1z"/>
		<path class="st3" d="M271.4,42.7h-1l-1-2.6c-0.1-0.3-0.3-0.5-0.5-0.6c-0.2-0.1-0.5-0.2-0.9-0.2h-2v3.4h-0.9v-7.8h3.1
			c0.8,0,1.5,0.2,1.9,0.6c0.5,0.4,0.7,0.9,0.7,1.6c0,0.5-0.1,0.9-0.4,1.3c-0.3,0.3-0.7,0.6-1.2,0.7c0.2,0,0.4,0.1,0.6,0.3
			c0.2,0.2,0.3,0.4,0.4,0.7L271.4,42.7z M268.3,38.5c1.2,0,1.8-0.5,1.8-1.5c0-0.5-0.1-0.8-0.4-1.1c-0.3-0.2-0.7-0.4-1.4-0.4h-2.1
			v2.9H268.3z"/>
		<path class="st3" d="M282.8,42.7l-0.9-2h-4.1l-0.9,2h-0.9l3.4-7.8h0.8l3.4,7.8H282.8z M278.2,39.9h3.5l-1.7-4L278.2,39.9z"/>
		<path class="st3" d="M285.5,42.7v-7.8h0.9v7.1h3.9v0.8H285.5z"/>
		<path class="st3" d="M292,42.7v-7.8h0.9v7.1h3.9v0.8H292z"/>
	</g>
</g>
</svg>
