<?xml version="1.0" encoding="utf-8"?>
<!-- Generator: Adobe Illustrator 19.2.1, SVG Export Plug-In . SVG Version: 6.00 Build 0)  -->
<svg version="1.1" id="Layer_1" xmlns="http://www.w3.org/2000/svg" xmlns:xlink="http://www.w3.org/1999/xlink" x="0px" y="0px"
	 width="41px" height="41px" viewBox="0 0 41 41" style="enable-background:new 0 0 41 41;" xml:space="preserve">
<style type="text/css">
	.st0{fill:#727E8F;}
	.st1{fill:#FFFFFF;}
</style>
<circle class="st0" cx="20.5" cy="20.5" r="19.5"/>
<g>
	<g>
		<path class="st1" d="M29.5,14.9c-0.7,0.3-1.4,0.5-2.1,0.6c0.8-0.5,1.3-1.2,1.6-2c-0.7,0.4-1.5,0.7-2.3,0.9
			C26,13.6,25,13.2,24,13.2c-2,0-3.7,1.7-3.7,3.7c0,0.3,0,0.6,0.1,0.8c-3.1-0.2-5.8-1.6-7.6-3.9c-0.3,0.5-0.5,1.2-0.5,1.9
			c0,1.3,0.7,2.4,1.6,3.1c-0.6,0-1.2-0.2-1.7-0.5v0c0,1.8,1.3,3.3,3,3.6c-0.3,0.1-0.6,0.1-1,0.1c-0.2,0-0.5,0-0.7-0.1
			c0.5,1.5,1.8,2.5,3.4,2.6c-1.3,1-2.9,1.6-4.6,1.6c-0.3,0-0.6,0-0.9-0.1c1.6,1,3.6,1.7,5.7,1.7c6.8,0,10.5-5.6,10.5-10.5l0-0.5
			C28.4,16.3,29,15.7,29.5,14.9z"/>
	</g>
</g>
</svg>
