<?xml version="1.0" encoding="utf-8"?>
<!-- Generator: Adobe Illustrator 19.2.1, SVG Export Plug-In . SVG Version: 6.00 Build 0)  -->
<svg version="1.1" id="Layer_1" xmlns="http://www.w3.org/2000/svg" xmlns:xlink="http://www.w3.org/1999/xlink" x="0px" y="0px"
	 width="41px" height="41px" viewBox="0 0 41 41" style="enable-background:new 0 0 41 41;" xml:space="preserve">
<style type="text/css">
	.st0{fill:#727E8F;}
	.st1{fill:#FFFFFF;}
</style>
<circle class="st0" cx="20.5" cy="20.5" r="19.5"/>
<g id="XMLID_496_">
	<path id="XMLID_497_" class="st1" d="M11.1,19.8l4.1,1.5l1.6,5.2c0.1,0.3,0.5,0.5,0.8,0.2l2.3-1.9c0.2-0.2,0.6-0.2,0.8,0l4.2,3
		c0.3,0.2,0.7,0.1,0.8-0.3l3.1-14.7c0.1-0.4-0.3-0.7-0.7-0.6l-17,6.6C10.7,19.1,10.7,19.7,11.1,19.8z M16.6,20.5l8.1-5
		c0.1-0.1,0.3,0.1,0.2,0.2L18.2,22c-0.2,0.2-0.4,0.5-0.4,0.8l-0.2,1.7c0,0.2-0.3,0.2-0.4,0l-0.9-3.1C16.1,21.1,16.3,20.7,16.6,20.5z
		"/>
</g>
</svg>
