<?xml version="1.0" encoding="utf-8"?>
<!-- Generator: Adobe Illustrator 19.2.1, SVG Export Plug-In . SVG Version: 6.00 Build 0)  -->
<svg version="1.1" id="Layer_1" xmlns="http://www.w3.org/2000/svg" xmlns:xlink="http://www.w3.org/1999/xlink" x="0px" y="0px"
	 width="41px" height="41px" viewBox="0 0 41 41" style="enable-background:new 0 0 41 41;" xml:space="preserve">
<style type="text/css">
	.st0{fill:#727E8F;}
	.st1{fill:#FFFFFF;}
</style>
<circle class="st0" cx="20.5" cy="20.5" r="19.5"/>
<g>
	<g>
		<path class="st1" d="M29.4,21.2c-0.3-0.8-1.2-1.3-2-1l-1.6,0.5c-0.4-1.1-0.7-2.3-1.1-3.4c1-0.3,1.6-0.5,1.6-0.5
			c0.8-0.3,1.3-1.2,1-2c-0.3-0.8-1.2-1.3-2-1l-1.6,0.5c-0.3-1-0.5-1.6-0.5-1.6c-0.3-0.8-1.2-1.3-2-1c-0.8,0.3-1.3,1.2-1,2l0.5,1.6
			l-3.4,1.1c-0.3-1-0.5-1.6-0.5-1.6c-0.3-0.8-1.2-1.3-2-1c-0.8,0.3-1.3,1.2-1,2l0.5,1.6l-1.7,0.5c-0.8,0.3-1.2,1.1-1,2
			c0.2,0.9,1.1,1.4,2,1.1c0,0,0.7-0.2,1.7-0.5l1.1,3.4l-1.7,0.5c-0.8,0.3-1.2,1.1-1,2c0.2,0.9,1.1,1.4,2,1.1c0,0,0.7-0.2,1.7-0.5
			l0.5,1.7c0.3,0.8,1.1,1.2,2,1c0.9-0.2,1.4-1.1,1.1-2c0,0-0.2-0.7-0.5-1.7c1.1-0.4,2.3-0.7,3.4-1.1l0.5,1.7c0.3,0.8,1.1,1.2,2,1
			c0.9-0.2,1.4-1.1,1.1-2c0,0-0.2-0.7-0.5-1.7c1-0.3,1.6-0.5,1.6-0.5C29.2,22.9,29.7,22,29.4,21.2z M19.4,22.7
			c-0.4-1.1-0.7-2.3-1.1-3.4c1.1-0.4,2.3-0.7,3.4-1.1l1.1,3.4L19.4,22.7z"/>
	</g>
</g>
</svg>
