<?xml version="1.0" encoding="utf-8"?>
<!-- Generator: Adobe Illustrator 19.2.1, SVG Export Plug-In . SVG Version: 6.00 Build 0)  -->
<svg version="1.1" id="Layer_1" xmlns="http://www.w3.org/2000/svg" xmlns:xlink="http://www.w3.org/1999/xlink" x="0px" y="0px"
	 width="41px" height="41px" viewBox="0 0 41 41" style="enable-background:new 0 0 41 41;" xml:space="preserve">
<style type="text/css">
	.st0{fill:#727E8F;}
	.st1{fill:#FFFFFF;}
</style>
<circle class="st0" cx="20.5" cy="20.5" r="19.5"/>
<g>
	<path class="st1" d="M25,11.5l-2.3,0c-2.6,0-4.3,1.7-4.3,4.4v2H16c-0.2,0-0.4,0.2-0.4,0.4v3c0,0.2,0.2,0.4,0.4,0.4h2.3v7.5
		c0,0.2,0.2,0.4,0.4,0.4h3.1c0.2,0,0.4-0.2,0.4-0.4v-7.5h2.7c0.2,0,0.4-0.2,0.4-0.4l0-3c0-0.1,0-0.2-0.1-0.3C25.1,18,25,18,24.9,18
		h-2.7v-1.7c0-0.8,0.2-1.3,1.3-1.3l1.6,0c0.2,0,0.4-0.2,0.4-0.4v-2.7C25.4,11.7,25.2,11.5,25,11.5z"/>
</g>
</svg>
