<?xml version="1.0" encoding="utf-8"?>
<!-- Generator: Adobe Illustrator 19.2.1, SVG Export Plug-In . SVG Version: 6.00 Build 0)  -->
<svg version="1.1" id="Layer_1" xmlns="http://www.w3.org/2000/svg" xmlns:xlink="http://www.w3.org/1999/xlink" x="0px" y="0px"
	 width="41px" height="41px" viewBox="0 0 41 41" style="enable-background:new 0 0 41 41;" xml:space="preserve">
<style type="text/css">
	.st0{fill:#727E8F;}
	.st1{fill:#FFFFFF;}
</style>
<circle class="st0" cx="20.5" cy="20.5" r="19.5"/>
<g>
	<g>
		<path class="st1" d="M30.5,19.9c0-1.4-1.1-2.5-2.5-2.5c-0.5,0-1.1,0.2-1.5,0.5c-1.4-1-3.2-1.5-5.1-1.7l1-2.4l3,0.7
			c0.1,0.9,0.9,1.7,1.8,1.7c1,0,1.9-0.8,1.9-1.9s-0.8-1.9-1.9-1.9c-0.7,0-1.2,0.3-1.6,0.8l-3.6-0.8c-0.3-0.1-0.6,0.1-0.7,0.4
			L20,16.2c-2.1,0.1-4.1,0.7-5.6,1.7c-0.4-0.3-0.9-0.5-1.5-0.5c-1.4,0-2.5,1.1-2.5,2.5c0,0.9,0.5,1.7,1.3,2.2c0,0.1,0,0.2,0,0.3
			c0,3.4,3.9,6.2,8.7,6.2c4.8,0,8.7-2.8,8.7-6.2c0-0.1,0-0.2,0-0.3C30,21.7,30.5,20.8,30.5,19.9z M27.3,13.7c0.3,0,0.6,0.3,0.6,0.6
			s-0.3,0.6-0.6,0.6c-0.3,0-0.6-0.3-0.6-0.6S27,13.7,27.3,13.7z M16.1,21.7c0-0.7,0.6-1.2,1.2-1.2c0.7,0,1.2,0.6,1.2,1.2
			c0,0.7-0.6,1.2-1.2,1.2C16.7,23,16.1,22.4,16.1,21.7z M23.3,25.9c-0.9,0.6-1.9,0.9-2.9,0.9c-1,0-2-0.3-2.9-0.9
			c-0.3-0.2-0.3-0.6-0.1-0.9s0.6-0.3,0.9-0.1c1.3,0.9,3,0.9,4.3,0c0.3-0.2,0.7-0.1,0.9,0.1C23.7,25.3,23.6,25.7,23.3,25.9z M23.6,23
			c-0.7,0-1.2-0.6-1.2-1.2c0-0.7,0.6-1.2,1.2-1.2s1.2,0.6,1.2,1.2C24.8,22.4,24.3,23,23.6,23z"/>
	</g>
</g>
</svg>
