<?xml version="1.0" encoding="utf-8"?>
<!-- Generator: Adobe Illustrator 19.2.1, SVG Export Plug-In . SVG Version: 6.00 Build 0)  -->
<svg version="1.1" id="Layer_1" xmlns="http://www.w3.org/2000/svg" xmlns:xlink="http://www.w3.org/1999/xlink" x="0px" y="0px"
	 width="41px" height="41px" viewBox="0 0 41 41" style="enable-background:new 0 0 41 41;" xml:space="preserve">
<style type="text/css">
	.st0{fill:#727E8F;}
	.st1{fill:#FFFFFF;}
</style>
<circle class="st0" cx="20.5" cy="20.5" r="19.5"/>
<g>
	<path class="st1" d="M28.1,14.4c0.4-1.1,0.4-2.4-0.1-3.7l-0.4,0c-0.2,0-0.7,0.1-1.3,0.3s-1.4,0.6-2.2,1.2c-1.1-0.3-2.3-0.5-3.5-0.5
		c-1.2,0-2.4,0.2-3.5,0.5c-0.5-0.3-1-0.6-1.4-0.9c-0.5-0.2-0.8-0.4-1.1-0.5c-0.3-0.1-0.5-0.1-0.8-0.1s-0.4,0-0.5,0
		c-0.1,0-0.1,0-0.1,0c-0.5,1.4-0.6,2.6-0.1,3.7c-1,1-1.4,2.3-1.4,3.8c0,0.8,0.1,1.5,0.2,2.1c0.1,0.6,0.3,1.2,0.5,1.6
		c0.2,0.5,0.5,0.9,0.9,1.2c0.3,0.4,0.7,0.6,1.1,0.9c0.4,0.2,0.8,0.4,1.2,0.6c0.5,0.2,0.9,0.3,1.3,0.4c0.4,0.1,0.9,0.2,1.4,0.2
		c-0.8,0.5-1.2,1.4-1.2,2.5v2.1c1.1,0.3,2.3,0.5,3.5,0.5c1.3,0,2.5-0.2,3.7-0.6v-2c0-1.2-0.4-2-1.2-2.5c0.5,0,1-0.1,1.4-0.2
		c0.4-0.1,0.9-0.2,1.3-0.4c0.5-0.2,0.9-0.4,1.2-0.6c0.4-0.2,0.7-0.5,1.1-0.9s0.6-0.8,0.9-1.2c0.2-0.5,0.4-1,0.5-1.6
		c0.1-0.6,0.2-1.3,0.2-2.1C29.5,16.7,29,15.5,28.1,14.4z"/>
</g>
</svg>
