<?xml version="1.0" encoding="utf-8"?>
<!-- Generator: Adobe Illustrator 19.2.1, SVG Export Plug-In . SVG Version: 6.00 Build 0)  -->
<svg version="1.1" id="Layer_1" xmlns="http://www.w3.org/2000/svg" xmlns:xlink="http://www.w3.org/1999/xlink" x="0px" y="0px"
	 width="18px" height="8px" viewBox="0 0 18 8" style="enable-background:new 0 0 18 8;" xml:space="preserve">
<style type="text/css">
	.st0{fill:#404856;}
</style>
<g>
	<path class="st0" d="M17.6,4.2l-3.9,3.6c-0.1,0.1-0.2,0.1-0.4,0.1c-0.1,0-0.2-0.2-0.2-0.3V5.3H0.6C0.5,5.3,0.3,5.1,0.3,5V3
		c0-0.2,0.1-0.3,0.3-0.3h12.5V0.5c0-0.1,0.1-0.2,0.2-0.3c0.1-0.1,0.3,0,0.4,0l3.9,3.5c0.1,0.1,0.1,0.1,0.1,0.2S17.6,4.2,17.6,4.2z"
		/>
</g>
</svg>
