<?xml version="1.0" encoding="utf-8"?>
<!-- Generator: Adobe Illustrator 19.2.1, SVG Export Plug-In . SVG Version: 6.00 Build 0)  -->
<svg version="1.1" id="Layer_1" xmlns="http://www.w3.org/2000/svg" xmlns:xlink="http://www.w3.org/1999/xlink" x="0px" y="0px"
	 width="18px" height="33px" viewBox="0 0 18 33" style="enable-background:new 0 0 18 33;" xml:space="preserve">
<style type="text/css">
	.st0{fill:#666666;}
</style>
<g>
	<path class="st0" d="M15.7,17.3L0.7,2.4c-0.4-0.4-0.4-1.2,0-1.6l0,0c0.4-0.4,1.2-0.4,1.6,0l14.9,14.9c0.4,0.4,0.4,1.2,0,1.6l0,0
		C16.8,17.7,16.1,17.7,15.7,17.3z"/>
	<path class="st0" d="M17.3,17.3L2.3,32.2c-0.4,0.4-1.2,0.4-1.6,0l0,0c-0.4-0.4-0.4-1.2,0-1.6l14.9-14.9c0.4-0.4,1.2-0.4,1.6,0l0,0
		C17.7,16.1,17.7,16.9,17.3,17.3z"/>
</g>
</svg>
