<svg version="1.1" id="Layer_1" xmlns="http://www.w3.org/2000/svg" xmlns:xlink="http://www.w3.org/1999/xlink" x="0px" y="0px" viewBox="0 0 36 36" style="enable-background:new 0 0 36 36;" xml:space="preserve">
                  <g>
                  <path d="M35,17.6c0-9.4-7.6-17-17-17c-9.4,0-17,7.6-17,17c0,9.4,7.6,17,17,17c3.2,0,6.1-0.9,8.7-2.4l3.1,3.1l4.5-4.5L31.4,28
                        C33.7,25.1,35,21.5,35,17.6z M18,28.3c-5.9,0-10.6-4.8-10.6-10.6C7.4,11.8,12.1,7,18,7c5.9,0,10.6,4.8,10.6,10.6
                        c0,2.2-0.6,4.2-1.7,5.8l-3.2-3.2l-4.5,4.5l2.8,2.8C20.7,28,19.4,28.3,18,28.3z"></path>
                  </g>
                  </svg>