<?xml version="1.0" encoding="utf-8"?>
<!-- Generator: Adobe Illustrator 19.0.0, SVG Export Plug-In . SVG Version: 6.00 Build 0)  -->
<svg version="1.1" id="Capa_1" xmlns="http://www.w3.org/2000/svg" xmlns:xlink="http://www.w3.org/1999/xlink" x="0px" y="0px"
	 width="15px" height="15.2px" viewBox="-223 25 15 15.2" style="enable-background:new -223 25 15 15.2;" xml:space="preserve">
<style type="text/css">
	.st0{fill:#BDC1C4;}
</style>
<g>
	<g>
		<path class="st0" d="M-208,37c0,0.2,0,0.5-0.2,0.6l-2.1,2.1c-0.1,0.1-0.2,0.2-0.4,0.3c-0.2,0.1-0.3,0.1-0.5,0.1c0,0,0,0-0.1,0
			c-0.1,0-0.1,0-0.2,0c-0.2,0-0.5,0-1-0.1c-0.4-0.1-1-0.2-1.7-0.5c-0.7-0.3-1.4-0.7-2.2-1.2c-0.8-0.5-1.7-1.3-2.6-2.2
			c-0.7-0.7-1.4-1.4-1.8-2.1c-0.5-0.7-0.9-1.3-1.2-1.8c-0.3-0.6-0.5-1.1-0.7-1.5c-0.1-0.5-0.2-0.9-0.3-1.2c-0.1-0.3-0.1-0.6-0.1-0.8
			c0-0.2,0-0.3,0-0.3c0-0.1,0.1-0.3,0.1-0.5c0.1-0.2,0.2-0.3,0.3-0.4l2.1-2.1c0.1-0.1,0.3-0.2,0.5-0.2c0.1,0,0.3,0,0.4,0.1
			s0.2,0.2,0.3,0.3l1.7,3.2c0.1,0.2,0.1,0.4,0.1,0.6s-0.1,0.4-0.3,0.5l-0.8,0.8c0,0,0,0.1-0.1,0.1c0,0,0,0.1,0,0.1
			c0,0.2,0.1,0.5,0.3,0.8c0.1,0.3,0.3,0.6,0.6,0.9c0.3,0.4,0.6,0.8,1.1,1.3c0.5,0.5,0.9,0.9,1.3,1.1c0.4,0.3,0.7,0.5,0.9,0.6
			c0.2,0.1,0.4,0.2,0.6,0.2l0.2,0c0,0,0.1,0,0.1,0c0,0,0.1,0,0.1-0.1l0.9-0.9c0.2-0.2,0.4-0.3,0.7-0.3c0.2,0,0.3,0,0.4,0.1h0
			l3.1,1.8C-208.2,36.6-208,36.8-208,37z"/>
	</g>
</g>
</svg>
