<svg xmlns="http://www.w3.org/2000/svg" xmlns:xlink="http://www.w3.org/1999/xlink" width="17" height="20" viewBox="0 0 17 20"><defs><path id="a" d="M1156.99 91.6a10.3 10.3 0 0 1-1.38 2.83c-.81 1.22-1.66 2.42-3.01 2.44-1.31.03-1.76-.78-3.26-.78-1.52 0-1.99.76-3.25.81-1.28.05-2.26-1.3-3.11-2.52-1.68-2.48-2.98-6.98-1.23-10.05a4.82 4.82 0 0 1 4.06-2.5c1.28-.02 2.48.88 3.27.88.78 0 2.25-1.08 3.78-.92.63.02 2.45.26 3.62 1.98a4.53 4.53 0 0 0-2.14 3.8 4.35 4.35 0 0 0 2.65 4.03zm-8.07-10.03a4.3 4.3 0 0 1 1.04-3.08 4.5 4.5 0 0 1 2.91-1.52 4.46 4.46 0 0 1-1.01 3.2c-.71.83-1.83 1.48-2.94 1.4z"/></defs><desc>Generated with Avocode.</desc><g transform="translate(-1140 -77)"><use fill="#fff" xlink:href="#a"/></g></svg>