<?xml version="1.0" encoding="utf-8"?>
<!-- Generator: Adobe Illustrator 19.2.1, SVG Export Plug-In . SVG Version: 6.00 Build 0)  -->
<svg version="1.1" id="Layer_1" xmlns="http://www.w3.org/2000/svg" xmlns:xlink="http://www.w3.org/1999/xlink" x="0px" y="0px"
	 width="524.9px" height="111.9px" viewBox="0 0 524.9 111.9" style="enable-background:new 0 0 524.9 111.9;" xml:space="preserve"
	>
<style type="text/css">
	.st0{fill:#1D1D1B;}
	.st1{fill:#EAB726;}
</style>
<g>
	<rect x="64" y="24.3" class="st0" width="18.7" height="87.7"/>
</g>
<g>
	<rect x="32" y="24.3" class="st0" width="18.7" height="87.7"/>
</g>
<g>
	<polygon class="st1" points="15.7,110.8 2.5,100.9 101.5,27.1 114.7,36.9 	"/>
</g>
<g>
	<rect y="24.3" class="st0" width="18.7" height="87.7"/>
</g>
<g>
	<rect x="95.9" y="24.3" class="st0" width="18.7" height="87.7"/>
</g>
<g>
	<rect y="0" class="st0" width="114.6" height="18.7"/>
</g>
<g>
	<path d="M143.8,32.1c-0.8,0.7-1.2,1.5-1.2,2.6c0,1.1,0.5,2,1.5,2.6c1,0.6,3.3,1.4,6.9,2.3c3.6,0.9,6.4,2.2,8.3,4c2,1.8,3,4.3,3,7.7
		c0,3.4-1.3,6.1-3.8,8.2c-2.5,2.1-5.9,3.2-10,3.2c-6,0-11.4-2.2-16.1-6.6l5-6.2c4.1,3.6,7.8,5.3,11.3,5.3c1.5,0,2.8-0.3,3.6-1
		c0.9-0.7,1.3-1.6,1.3-2.7c0-1.1-0.5-2-1.4-2.7c-0.9-0.7-2.8-1.3-5.6-2c-4.4-1-7.6-2.4-9.6-4.1c-2-1.7-3.1-4.3-3.1-7.9
		c0-3.6,1.3-6.3,3.9-8.3c2.6-1.9,5.8-2.9,9.6-2.9c2.5,0,5,0.4,7.6,1.3c2.5,0.9,4.7,2.1,6.6,3.7l-4.3,6.2c-3.3-2.5-6.7-3.7-10.2-3.7
		C145.7,31.1,144.6,31.4,143.8,32.1z"/>
	<path d="M192.8,24.5h8.4v37.7h-8.4V47.4h-15v14.9h-8.4V24.5h8.4v15.8h15V24.5z"/>
	<path d="M237.8,24.5V32H219v7.8h16.9V47H219v7.8h19.4v7.5h-27.8V24.5H237.8z"/>
	<path d="M274.7,29.5c3.6,3.3,5.4,7.9,5.4,13.7c0,5.9-1.8,10.5-5.3,13.9c-3.5,3.4-8.9,5.1-16.1,5.1h-12.9V24.5h13.3
		C265.9,24.5,271.1,26.2,274.7,29.5z M268.5,51.9c2.1-1.9,3.1-4.8,3.1-8.5c0-3.7-1-6.6-3.1-8.6c-2.1-2-5.2-3-9.5-3h-4.7v22.9h5.3
		C263.5,54.8,266.5,53.9,268.5,51.9z"/>
	<path d="M297.4,52.5c1.4,1.7,3.3,2.6,5.7,2.6s4.3-0.9,5.6-2.6c1.4-1.7,2.1-4.1,2.1-7.2V24.5h8.4v21.1c0,5.5-1.5,9.7-4.5,12.6
		c-3,2.9-6.9,4.4-11.6,4.4s-8.6-1.5-11.6-4.4c-3-3-4.6-7.1-4.6-12.6V24.5h8.4v20.8C295.3,48.4,296,50.8,297.4,52.5z"/>
	<path d="M328,62.3V24.5h8.4v30.2h16.1v7.5H328z"/>
	<path d="M385.8,24.5V32h-18.8v7.8H384V47h-16.9v7.8h19.4v7.5h-27.8V24.5H385.8z"/>
	<path d="M408.2,62.3V24.5h8.4v30.2h16.1v7.5H408.2z"/>
	<path d="M454.9,31.8v30.5h-8.4V31.8h-10.7v-7.3h29.8v7.3H454.9z"/>
	<path d="M500.5,29.5c3.6,3.3,5.4,7.9,5.4,13.7c0,5.9-1.8,10.5-5.3,13.9c-3.5,3.4-8.9,5.1-16.1,5.1h-12.9V24.5H485
		C491.8,24.5,496.9,26.2,500.5,29.5z M494.4,51.9c2.1-1.9,3.1-4.8,3.1-8.5c0-3.7-1-6.6-3.1-8.6c-2.1-2-5.2-3-9.5-3h-4.7v22.9h5.3
		C489.3,54.8,492.3,53.9,494.4,51.9z"/>
</g>
<g>
</g>
<g>
	<path d="M130.6,77.3h15.9v1.9h-6.9v19.1h-2.1V79.2h-6.9V77.3z"/>
	<path d="M150.2,77.3h2.1v9.6h13.1v-9.6h2.1v21h-2.1v-9.5h-13.1v9.5h-2.1V77.3z"/>
	<path d="M174.1,77.3h14v1.9h-12v7.5h10.7v1.9h-10.7v7.9h12.4v1.9h-14.4V77.3z"/>
	<path d="M210.6,79.5c-1-0.3-2-0.4-2.9-0.4c-1.4,0-2.6,0.3-3.5,0.9s-1.3,1.3-1.3,2.3c0,0.9,0.2,1.6,0.7,2.1s1.1,1,1.8,1.3
		c0.7,0.3,1.7,0.7,2.9,1c1.4,0.4,2.6,0.8,3.4,1.2s1.6,1,2.2,1.8c0.6,0.8,0.9,1.8,0.9,3.1c0,1.1-0.3,2.1-0.9,3
		c-0.6,0.9-1.5,1.5-2.7,2s-2.5,0.7-3.9,0.7c-1.5,0-2.9-0.3-4.3-0.9c-1.4-0.6-2.6-1.4-3.6-2.3l1-1.7c0.9,0.9,2,1.6,3.3,2.2
		c1.2,0.5,2.5,0.8,3.7,0.8c1.6,0,2.9-0.3,3.8-1c0.9-0.6,1.4-1.5,1.4-2.6c0-0.9-0.2-1.6-0.7-2.2c-0.5-0.6-1.1-1-1.8-1.3
		c-0.7-0.3-1.7-0.7-2.9-1.1c-1.4-0.4-2.6-0.9-3.4-1.2c-0.9-0.4-1.6-1-2.2-1.7c-0.6-0.8-0.9-1.8-0.9-3c0-1.1,0.3-2,0.9-2.8
		c0.6-0.8,1.4-1.4,2.5-1.8c1.1-0.4,2.3-0.6,3.8-0.6c1.1,0,2.3,0.2,3.4,0.5c1.1,0.3,2.2,0.8,3,1.3l-0.9,1.8
		C212.6,80.2,211.6,79.8,210.6,79.5z"/>
	<path d="M220,77.3h2.1v9.6h13.1v-9.6h2.1v21h-2.1v-9.5h-13.1v9.5H220V77.3z"/>
	<path d="M243.9,77.3h14v1.9h-12v7.5h10.7v1.9H246v7.9h12.4v1.9h-14.4V77.3z"/>
	<path d="M277.3,78.7c1.7,0.9,2.9,2.2,3.9,3.8c0.9,1.6,1.4,3.4,1.4,5.3c0,1.9-0.5,3.7-1.4,5.3c-1,1.6-2.3,2.9-3.9,3.8
		s-3.5,1.4-5.5,1.4h-8.4v-21h8.4C273.8,77.3,275.7,77.8,277.3,78.7z M276.2,95.3c1.3-0.8,2.4-1.8,3.1-3.1c0.8-1.3,1.2-2.8,1.2-4.4
		c0-1.6-0.4-3.1-1.2-4.4c-0.8-1.3-1.8-2.4-3.2-3.1s-2.8-1.1-4.4-1.1h-6.3v17.3h6.4C273.5,96.4,274.9,96,276.2,95.3z"/>
	<path d="M290.5,94.8c1.2,1.2,2.8,1.8,4.9,1.8s3.7-0.6,4.9-1.8c1.2-1.2,1.7-2.9,1.7-5V77.3h2.1v12.5c0,2.7-0.8,4.8-2.3,6.4
		c-1.5,1.5-3.7,2.3-6.4,2.3s-4.8-0.8-6.4-2.3s-2.3-3.7-2.3-6.4V77.3h2.1v12.5C288.8,91.9,289.4,93.6,290.5,94.8z"/>
	<path d="M310.2,77.3h2.1v19.1h9.2v1.9h-11.3V77.3z"/>
	<path d="M325.6,77.3h14v1.9h-12v7.5h10.7v1.9h-10.7v7.9H340v1.9h-14.4V77.3z"/>
	<path d="M365.7,79.6c-1.1-0.5-2.2-0.7-3.4-0.7c-1.6,0-3.1,0.4-4.5,1.2c-1.3,0.8-2.4,1.8-3.2,3.2s-1.2,2.8-1.2,4.4
		c0,1.6,0.4,3.1,1.2,4.4s1.9,2.4,3.2,3.2c1.4,0.8,2.8,1.2,4.5,1.2c1.2,0,2.3-0.2,3.4-0.7s2.1-1.1,2.9-1.9l1.3,1.3
		c-1,1-2.2,1.7-3.6,2.3c-1.3,0.6-2.7,0.8-4.1,0.8c-2,0-3.8-0.5-5.5-1.4s-3-2.3-3.9-3.9c-1-1.6-1.5-3.4-1.5-5.4
		c0-1.9,0.5-3.7,1.5-5.3c1-1.6,2.3-2.9,4-3.9s3.5-1.4,5.5-1.4c1.4,0,2.8,0.3,4.1,0.8c1.3,0.5,2.5,1.3,3.5,2.2l-1.2,1.4
		C367.7,80.7,366.8,80.1,365.7,79.6z"/>
	<path d="M388.3,78.6c1.7,1,3,2.2,4,3.9c1,1.6,1.5,3.4,1.5,5.3c0,1.9-0.5,3.7-1.5,5.4c-1,1.6-2.3,2.9-4,3.9s-3.5,1.4-5.5,1.4
		S379,98,377.3,97s-3-2.3-4-3.9c-1-1.6-1.5-3.4-1.5-5.4c0-1.9,0.5-3.7,1.5-5.3c1-1.6,2.3-2.9,4-3.9s3.5-1.4,5.5-1.4
		S386.6,77.6,388.3,78.6z M378.4,80.2c-1.4,0.8-2.4,1.8-3.2,3.2c-0.8,1.3-1.2,2.8-1.2,4.4c0,1.6,0.4,3.1,1.2,4.4s1.9,2.4,3.2,3.2
		c1.4,0.8,2.8,1.2,4.4,1.2c1.6,0,3-0.4,4.4-1.2c1.4-0.8,2.4-1.9,3.2-3.2c0.8-1.4,1.2-2.8,1.2-4.4c0-1.6-0.4-3.1-1.2-4.4
		c-0.8-1.3-1.9-2.4-3.2-3.2c-1.3-0.8-2.8-1.2-4.4-1.2C381.2,79,379.7,79.4,378.4,80.2z"/>
	<path d="M398.3,77.3h2.6l8.2,15.8l8.1-15.8h2.6v21h-1.9l0-18.1L409.6,96h-1.1l-8.3-15.9v18.1h-2V77.3z"/>
	<path d="M440.2,79.1c1.4,1.2,2.1,2.9,2.1,5.1c0,2.3-0.7,4.1-2.1,5.3c-1.4,1.3-3.4,1.9-6,1.9h-5.7v6.8h-2.1v-21h7.7
		C436.8,77.3,438.8,77.9,440.2,79.1z M438.7,88.3c1.1-0.9,1.6-2.2,1.6-3.9c0-1.7-0.5-3-1.6-3.8s-2.6-1.3-4.6-1.3h-5.6v10.5h5.6
		C436.1,89.6,437.6,89.2,438.7,88.3z"/>
	<path d="M461,98.3l-2.5-5.6h-11.6l-2.5,5.6h-2.2l9.4-21h2.2l9.5,21H461z M447.7,90.8h10l-5-11.3L447.7,90.8z"/>
	<path d="M481.9,77.3h2v21h-2.2l-13-17.8v17.8h-2.1v-21h2.2l13,17.8V77.3z"/>
	<path d="M505.7,77.3l-8.1,13.5v7.5h-2.1v-7.5l-8.2-13.5h2.2l7.1,11.3l6.9-11.3H505.7z"/>
</g>
</svg>
