<?xml version="1.0" encoding="utf-8"?>
<!-- Generator: Adobe Illustrator 19.2.1, SVG Export Plug-In . SVG Version: 6.00 Build 0)  -->
<svg version="1.1" id="Layer_1" xmlns="http://www.w3.org/2000/svg" xmlns:xlink="http://www.w3.org/1999/xlink" x="0px" y="0px"
	 width="560px" height="390px" viewBox="0 0 560 390" style="enable-background:new 0 0 560 390;" xml:space="preserve">
<style type="text/css">
	.st0{fill:#F5F5F5;stroke:#555555;stroke-width:40;stroke-miterlimit:10;}
	.st1{fill:#FF4B55;}
	.st2{fill:#F5F5F5;}
	.st3{fill:#41479B;}
</style>
<polygon class="st0" points="25,25 25,251.7 25,356.1 25,365 33.8,365 526.2,365 535,365 535,25 "/>
<path class="st1" d="M526.2,365H33.8c-4.9,0-8.8-4-8.8-8.9V251.7h510v104.4C535,361,531.1,365,526.2,365z"/>
<polygon class="st1" points="25,207 25,312.3 25,360.8 25,365 33.8,365 526.2,365 535,365 535,207 "/>
<polygon class="st2" points="25,25 25,117 25,159.4 25,163 33.8,163 526.2,163 535,163 535,25 "/>
<path class="st2" d="M535,138.3H25V33.9c0-4.9,3.9-8.9,8.8-8.9h492.4c4.9,0,8.8,4,8.8,8.9L535,138.3L535,138.3z"/>
<rect x="25" y="138.3" class="st3" width="510" height="113.3"/>
</svg>
