<?xml version="1.0" encoding="utf-8"?>
<!-- Generator: Adobe Illustrator 19.2.1, SVG Export Plug-In . SVG Version: 6.00 Build 0)  -->
<svg version="1.1" id="Capa_1" xmlns="http://www.w3.org/2000/svg" xmlns:xlink="http://www.w3.org/1999/xlink" x="0px" y="0px"
	 width="560px" height="390px" viewBox="0 0 560 390" style="enable-background:new 0 0 560 390;" xml:space="preserve">
<style type="text/css">
	.st0{fill:#0052B4;stroke:#555555;stroke-width:40;stroke-miterlimit:10;}
	.st1{fill:#F0F0F0;}
	.st2{fill:#D80027;}
	.st3{fill:#0052B4;}
</style>
<polygon class="st0" points="335.7,24.3 335.7,24.3 312,24.3 312,24.3 248,24.3 224.3,24.3 24,24.3 24,163 24,227 24,254.4 
	24,304.5 24,365.7 24,365.7 536,365.7 536,365.7 536,254.4 536,227 536,163 536,135.6 536,24.3 "/>
<g>
	<rect x="25" y="25" class="st1" width="510" height="340"/>
	<polygon class="st2" points="311.9,25 248.1,25 248.1,163.1 25,163.1 25,226.9 248.1,226.9 248.1,365 311.9,365 311.9,226.9 
		535,226.9 535,163.1 311.9,163.1 	"/>
	<g>
		<polygon class="st3" points="417.2,254.1 535,319.5 535,254.1 		"/>
		<polygon class="st3" points="335.4,254.1 535,365 535,333.6 391.9,254.1 		"/>
		<polygon class="st3" points="481.8,365 335.4,283.7 335.4,365 		"/>
	</g>
	<polygon class="st1" points="335.4,254.1 535,365 535,333.6 391.9,254.1 	"/>
	<polygon class="st2" points="335.4,254.1 535,365 535,333.6 391.9,254.1 	"/>
	<g>
		<polygon class="st3" points="115,254.1 25,304.1 25,254.1 		"/>
		<polygon class="st3" points="224.6,268.2 224.6,365 50.4,365 		"/>
	</g>
	<polygon class="st2" points="168.1,254.1 25,333.6 25,365 25,365 224.6,254.1 	"/>
	<g>
		<polygon class="st3" points="142.8,135.9 25,70.4 25,135.9 		"/>
		<polygon class="st3" points="224.6,135.9 25,25 25,56.3 168.1,135.9 		"/>
		<polygon class="st3" points="78.2,25 224.6,106.3 224.6,25 		"/>
	</g>
	<polygon class="st1" points="224.6,135.9 25,25 25,56.3 168.1,135.9 	"/>
	<polygon class="st2" points="224.6,135.9 25,25 25,56.3 168.1,135.9 	"/>
	<g>
		<polygon class="st3" points="445,135.9 535,85.9 535,135.9 		"/>
		<polygon class="st3" points="335.4,121.8 335.4,25 509.6,25 		"/>
	</g>
	<polygon class="st2" points="391.9,135.9 535,56.3 535,25 535,25 335.4,135.9 	"/>
</g>
</svg>
