<?xml version="1.0" encoding="utf-8"?>
<!-- Generator: Adobe Illustrator 19.2.1, SVG Export Plug-In . SVG Version: 6.00 Build 0)  -->
<svg version="1.1" xmlns="http://www.w3.org/2000/svg" xmlns:xlink="http://www.w3.org/1999/xlink" x="0px" y="0px" width="24px"
	 height="24px" viewBox="0 0 24 24" style="enable-background:new 0 0 24 24;" xml:space="preserve">
<style type="text/css">
	.st0{display:none;}
	.st1{display:inline;}
	.st2{fill:#808080;}
</style>
<g id="Layer_1" class="st0">
	<g class="st1">
		<path class="st2" d="M22.2,16.2c-0.1,1.6-0.5,3.1-1.7,4.3c-1.2,1.2-2.7,1.6-4.3,1.7c-1.4,0.1-2.8,0.1-4.2,0.1s-2.8,0-4.2-0.1
			c-1.6-0.1-3.1-0.5-4.3-1.7c-1.2-1.2-1.6-2.7-1.7-4.3c-0.1-1.4-0.1-2.8-0.1-4.2s0-2.8,0.1-4.2c0.1-1.6,0.5-3.1,1.7-4.3
			c1.2-1.2,2.7-1.6,4.3-1.7c1.4-0.1,2.8-0.1,4.2-0.1s2.8,0,4.2,0.1c1.6,0.1,3.1,0.5,4.3,1.7c1.2,1.2,1.6,2.7,1.7,4.3
			c0.1,1.4,0.1,2.8,0.1,4.2S22.3,14.8,22.2,16.2z M5.9,4C5.5,4.2,5.1,4.4,4.8,4.8C4.4,5.1,4.2,5.5,4,5.9C3.4,7.3,3.6,10.5,3.6,12
			c0,1.5-0.1,4.7,0.4,6.1c0.2,0.5,0.4,0.8,0.8,1.2s0.7,0.6,1.2,0.8c1.4,0.5,4.6,0.4,6.1,0.4s4.7,0.1,6.1-0.4
			c0.5-0.2,0.8-0.4,1.2-0.8c0.4-0.4,0.6-0.7,0.8-1.2c0.5-1.4,0.4-4.6,0.4-6.1c0-1.5,0.1-4.7-0.4-6.1c-0.2-0.5-0.4-0.8-0.8-1.2
			c-0.4-0.4-0.7-0.6-1.2-0.8c-1.4-0.5-4.6-0.4-6.1-0.4S7.3,3.4,5.9,4z M12,17.3c-2.9,0-5.3-2.4-5.3-5.3c0-2.9,2.4-5.3,5.3-5.3
			s5.3,2.4,5.3,5.3C17.3,14.9,14.9,17.3,12,17.3z M12,8.6c-1.9,0-3.4,1.5-3.4,3.4c0,1.9,1.5,3.4,3.4,3.4s3.4-1.5,3.4-3.4
			C15.4,10.1,13.9,8.6,12,8.6z M17.5,7.7c-0.7,0-1.2-0.5-1.2-1.2c0-0.7,0.5-1.2,1.2-1.2c0.7,0,1.2,0.5,1.2,1.2
			C18.7,7.2,18.2,7.7,17.5,7.7z"/>
	</g>
</g>
<g id="Layer_2" class="st0">
	<g class="st1">
		<path class="st2" d="M17.8,4.6h-2.1c-1.6,0-2,0.8-2,1.9V9h3.9l-0.5,4h-3.4v10.2H9.6V13H6.2V9h3.4V6.1c0-3.4,2.1-5.2,5.1-5.2
			c1.4,0,2.7,0.1,3.1,0.2V4.6z"/>
	</g>
</g>
<g id="Layer_3" class="st0">
	<g class="st1">
		<path class="st2" d="M20.4,7.7c0,0.2,0,0.4,0,0.6c0,5.7-4.4,12.3-12.3,12.3c-2.5,0-4.7-0.7-6.6-1.9c0.3,0,0.7,0.1,1,0.1
			c2,0,3.9-0.7,5.4-1.8c-1.9,0-3.5-1.3-4-3c0.3,0,0.5,0.1,0.8,0.1c0.4,0,0.8-0.1,1.1-0.1c-2-0.4-3.5-2.1-3.5-4.2c0,0,0,0,0-0.1
			c0.6,0.3,1.2,0.5,2,0.5C3.1,9.2,2.3,7.9,2.3,6.4c0-0.8,0.2-1.5,0.6-2.2C5,6.8,8.2,8.6,11.8,8.7c-0.1-0.3-0.1-0.7-0.1-1
			c0-2.4,1.9-4.3,4.3-4.3c1.2,0,2.4,0.5,3.2,1.4c1-0.2,1.9-0.5,2.7-1c-0.3,1-1,1.8-1.9,2.4c0.9-0.1,1.7-0.3,2.5-0.7
			C22,6.3,21.2,7.1,20.4,7.7z"/>
	</g>
</g>
<g id="Layer_4">
	<g>
		<path class="st2" d="M12,22.3c-1,0-2-0.1-2.9-0.4c0.4-0.6,0.8-1.4,1-2.2c0,0,0.1-0.5,0.7-2.8c0.3,0.7,1.4,1.3,2.5,1.3
			c3.3,0,5.6-3,5.6-7.1c0-3-2.6-5.9-6.5-5.9C7.5,5.2,5,8.7,5,11.6c0,1.8,0.7,3.3,2.1,3.9c0.2,0.1,0.4,0,0.5-0.3
			c0.1-0.2,0.2-0.6,0.2-0.8c0.1-0.3,0-0.3-0.1-0.6c-0.4-0.5-0.7-1.1-0.7-2C7,9.3,9,6.9,12.1,6.9c2.8,0,4.3,1.7,4.3,4
			c0,3-1.3,5.5-3.3,5.5c-1.1,0-1.9-0.9-1.6-2c0.3-1.3,0.9-2.7,0.9-3.6c0-0.8-0.5-1.6-1.4-1.6c-1.1,0-2,1.1-2,2.7c0,0,0,1,0.3,1.6
			C8.2,18.2,8,19.1,8,19.1c-0.2,0.8-0.2,1.6-0.2,2.4c-3.6-1.6-6.2-5.2-6.2-9.4C1.7,6.3,6.3,1.7,12,1.7c5.7,0,10.3,4.6,10.3,10.3
			S17.7,22.3,12,22.3z"/>
	</g>
</g>
<g id="Layer_5" class="st0">
	<g class="st1">
		<path class="st2" d="M23.1,17.8c-0.3,1.3-1.3,2.3-2.5,2.4c-2.8,0.3-5.7,0.3-8.6,0.3s-5.8,0-8.6-0.3c-1.2-0.1-2.2-1.1-2.5-2.4
			C0.5,16,0.5,13.9,0.5,12s0-4,0.4-5.8c0.3-1.3,1.3-2.3,2.5-2.4C6.2,3.4,9.1,3.4,12,3.4s5.8,0,8.6,0.3c1.2,0.1,2.2,1.1,2.5,2.4
			c0.4,1.9,0.4,3.9,0.4,5.8S23.5,16,23.1,17.8z M16.5,11.3L10,7C9.7,6.8,9.4,6.8,9.1,7C8.9,7.1,8.7,7.4,8.7,7.7v8.6
			c0,0.3,0.2,0.6,0.4,0.8c0.1,0.1,0.3,0.1,0.4,0.1c0.2,0,0.3,0,0.4-0.1l6.6-4.3c0.2-0.1,0.4-0.4,0.4-0.7S16.8,11.4,16.5,11.3z"/>
	</g>
</g>
</svg>
